<svg xmlns="http://www.w3.org/2000/svg" width="1100" height="560" viewBox="0 0 1100 560"><rect width="1100" height="560" fill="#101b2b"/><g font-family="Segoe UI, sans-serif" fill="#eef4ff"><text x="40" y="52" font-size="28">Xiaobeimen wooden doors: align the open leaves</text><text x="40" y="88" font-size="17">Top view • static geometry correction • Production V3 gate</text><rect x="35" y="120" width="490" height="300" rx="15" fill="#253145"/><rect x="550" y="120" width="515" height="300" rx="15" fill="#253145"/><text x="60" y="160" font-size="23" fill="#ffbb99">Before: rotated around leaf centers</text><text x="575" y="160" font-size="23" fill="#9eebbc">After: outer edges at the jambs</text><g fill="#788698"><rect x="70" y="200" width="85" height="140"/><rect x="410" y="200" width="85" height="140"/><rect x="580" y="200" width="85" height="140"/><rect x="950" y="200" width="85" height="140"/></g><g stroke="#cb8851" stroke-width="14"><path d="M205 310 L275 240 M355 310 L285 240"/><path d="M665 320 L714 215 M950 320 L901 215"/></g><g stroke="#efbd6e" stroke-width="4" stroke-dasharray="5 7"><path d="M211 275 H267 M303 275 H359"/></g><g fill="#9eebbc"><circle cx="665" cy="320" r="9"/><circle cx="950" cy="320" r="9"/></g><text x="70" y="380" font-size="17">Detached outer edges; studs not rotated</text><text x="580" y="380" font-size="17">Mirrored 65° opening; studs follow each leaf</text><text x="45" y="462" font-size="20">Validation</text><text x="45" y="496" font-size="17">16 door vertices + 1,008 stud vertices corrected; all other positions unchanged.</text><text x="45" y="528" font-size="17">Placed + fresh Blueprint checks PASS • Front/rear visuals checked • Source GLB preserved</text></g></svg>